<?xml version="1.0" encoding="utf-8"?>
<!-- Generator: Adobe Illustrator 28.0.0, SVG Export Plug-In . SVG Version: 6.00 Build 0)  -->
<svg version="1.1" xmlns="http://www.w3.org/2000/svg" xmlns:xlink="http://www.w3.org/1999/xlink" x="0px" y="0px"
	 viewBox="0 0 1000 200" style="enable-background:new 0 0 1000 200;" xml:space="preserve">
<style type="text/css">
	.st0{fill:url(#SVGID_1_);}
	.st1{fill:#F7931E;}
	.st2{fill:none;}
	.st3{font-family:'NotoSans-SemiBold';}
	.st4{font-size:128.7332px;}
</style>
<g id="Layer_1">
	
		<radialGradient id="SVGID_1_" cx="4480.585" cy="714.5346" r="1225.5692" gradientTransform="matrix(0.9953 0 0 0.9943 41.4886 20.0641)" gradientUnits="userSpaceOnUse">
		<stop  offset="0" style="stop-color:#FFFFFF"/>
		<stop  offset="1" style="stop-color:#D4FAFF"/>
	</radialGradient>
	<rect x="3125.5" y="-309.5" class="st0" width="2751" height="2080"/>
	<circle class="st1" cx="218" cy="99.58" r="94.5"/>
	<rect x="349.56" y="49.98" class="st2" width="539.96" height="118.75"/>
	<text transform="matrix(1 0 0 1 349.5566 147.8174)" class="st3 st4">VRUCHT</text>
	<rect x="4909.64" y="113.05" class="st2" width="844.86" height="185.81"/>
	<text transform="matrix(1 0 0 1.25 4909.6387 220.2075)" style="font-family:'SakkalMajalla-Bold'; font-size:189px;">VRUCHT</text>
	<rect x="4831.64" y="1114.26" class="st2" width="742.86" height="163.38"/>
	<text transform="matrix(1 0 0 1 4831.6387 1248.8643)" class="st1 st3" style="font-size:177.1073px;">VRUCHT</text>
	<circle class="st1" cx="3473.64" cy="1134.5" r="130"/>
	<rect x="3654.64" y="1066.26" class="st2" width="742.86" height="163.38"/>
	<text transform="matrix(1 0 0 1 3654.6387 1200.8643)" class="st3" style="font-size:177.1073px;">VRUCHT</text>
</g>
<g id="Isolation_Mode">
	<path class="st1" d="M4858.02,40.22c-69.48,2.63-125,59.78-125,129.9s55.52,127.27,125,129.9V40.22z"/>
	<path d="M292.73,107.2c1.65,2,2.32,4.63,1.82,7.2c-2,10.37-6.03,20.07-11.98,28.84c-1.44,2.12-3.72,3.47-6.27,3.71
		c-2.54,0.26-5.03-0.65-6.83-2.46l0,0l-40.37-40.37h57.1C288.74,104.13,291.11,105.25,292.73,107.2z M143.31,107.22
		c1.63-1.97,4.02-3.1,6.57-3.1h57.09L166.6,144.5l0,0c-0.01,0.01-0.01,0.01-0.02,0.02c-1.82,1.81-4.22,2.66-6.78,2.43
		c-2.58-0.25-4.91-1.63-6.38-3.81c-5.92-8.75-9.93-18.46-11.92-28.87C141.02,111.76,141.68,109.19,143.31,107.22z M173.07,150.99
		l40.37-40.38v57.09c0,0,0,0.01,0,0.01h0c0,2.54-1.12,4.91-3.07,6.53c-2,1.65-4.63,2.32-7.2,1.82c-10.37-2-20.08-6.03-28.84-11.98
		c-2.11-1.44-3.47-3.72-3.71-6.26C170.38,155.28,171.27,152.79,173.07,150.99z M222.62,110.61l40.38,40.38
		c1.82,1.82,2.69,4.23,2.44,6.79c-0.25,2.58-1.63,4.91-3.81,6.38c-8.75,5.92-18.46,9.93-28.87,11.92c-2.51,0.48-5.08-0.18-7.05-1.81
		c-1.97-1.63-3.09-4.02-3.09-6.57V110.61z M218.03,194.5c-50.82,0-92.45-40.13-94.85-90.37h11.21c-1.98,3.59-2.69,7.76-1.9,11.87
		c2.23,11.64,6.71,22.5,13.33,32.28c3.01,4.45,7.78,7.29,13.1,7.8c0.57,0.05,1.13,0.08,1.7,0.08c0.28,0,0.56-0.03,0.84-0.04
		c-0.04,0.85-0.05,1.71,0.04,2.57c0.5,5.27,3.3,10.01,7.69,12.98c9.8,6.65,20.65,11.16,32.25,13.4c1.14,0.22,2.29,0.33,3.43,0.33
		c4.11,0,8.12-1.42,11.35-4.08c0.66-0.54,1.25-1.14,1.82-1.76c0.57,0.63,1.17,1.24,1.84,1.79c3.21,2.65,7.18,4.06,11.27,4.06
		c1.11,0,2.23-0.11,3.35-0.32c11.63-2.23,22.49-6.71,32.28-13.33c4.45-3.01,7.29-7.78,7.8-13.1c0.08-0.85,0.08-1.69,0.04-2.53
		c0.29,0.01,0.58,0.04,0.88,0.04c0.56,0,1.12-0.03,1.69-0.08c5.28-0.5,10.01-3.3,12.99-7.69c6.65-9.8,11.16-20.66,13.4-32.25
		c0.8-4.16,0.1-8.39-1.9-12.01h11.23C310.48,154.37,268.85,194.5,218.03,194.5z"/>
	<path d="M4853.77,272.36c-2.77,2.27-6.4,3.17-9.96,2.49c-14.34-2.74-27.77-8.27-39.9-16.42c-2.93-1.97-4.79-5.1-5.13-8.59
		c-0.36-3.47,0.91-6.89,3.4-9.36l0,0l55.84-55.33v78.27C4858.02,266.89,4856.47,270.15,4853.77,272.36z M4853.74,67.56
		c2.72,2.23,4.28,5.51,4.28,9v78.25l-55.84-55.33l0,0c-0.01-0.01-0.02-0.01-0.02-0.02c-2.51-2.49-3.68-5.78-3.36-9.29
		c0.34-3.54,2.26-6.73,5.27-8.74c12.1-8.11,25.54-13.61,39.93-16.34C4847.46,64.42,4851.02,65.33,4853.74,67.56z M4793.21,108.36
		l55.85,55.34h-78.97c-0.01,0-0.01,0-0.02,0v0c-3.51,0-6.8-1.54-9.03-4.21c-2.29-2.75-3.21-6.34-2.52-9.87
		c2.77-14.22,8.35-27.52,16.58-39.53c1.99-2.9,5.14-4.75,8.66-5.08C4787.27,104.67,4790.71,105.89,4793.21,108.36z M4849.06,176.26
		l-55.85,55.34c-2.52,2.49-5.85,3.68-9.39,3.35c-3.57-0.34-6.79-2.24-8.82-5.22c-8.19-11.99-13.74-25.31-16.49-39.57
		c-0.66-3.44,0.24-6.96,2.5-9.66c2.25-2.69,5.56-4.24,9.09-4.24H4849.06z M4733.02,169.98c0-69.66,55.51-126.71,125-130v15.36
		c-4.96-2.72-10.74-3.68-16.42-2.61c-16.1,3.05-31.12,9.2-44.65,18.27c-6.15,4.12-10.08,10.67-10.79,17.95
		c-0.07,0.78-0.11,1.55-0.11,2.32c0,0.38,0.04,0.77,0.06,1.15c-1.18-0.06-2.36-0.06-3.55,0.05c-7.3,0.69-13.84,4.53-17.96,10.53
		c-9.2,13.43-15.44,28.31-18.54,44.21c-0.3,1.57-0.45,3.14-0.45,4.7c0,5.64,1.96,11.13,5.64,15.55c0.75,0.9,1.58,1.72,2.44,2.49
		c-0.87,0.78-1.71,1.61-2.48,2.52c-3.67,4.4-5.62,9.85-5.62,15.44c0,1.53,0.15,3.06,0.44,4.59c3.08,15.95,9.28,30.83,18.44,44.25
		c4.16,6.09,10.76,9.99,18.12,10.69c1.18,0.11,2.34,0.11,3.5,0.05c-0.02,0.4-0.06,0.8-0.06,1.2c0,0.77,0.04,1.54,0.11,2.31
		c0.69,7.23,4.56,13.72,10.63,17.8c13.56,9.12,28.57,15.3,44.61,18.36c5.76,1.1,11.6,0.13,16.62-2.6v15.39
		C4788.53,296.69,4733.02,239.64,4733.02,169.98z"/>
	<path class="st1" d="M5052.74,930.5c2.63,69.48,59.78,125,129.9,125s127.27-55.52,129.9-125L5052.74,930.5z"/>
	<path d="M5284.88,934.75c2.27,2.77,3.17,6.4,2.49,9.96c-2.74,14.34-8.27,27.77-16.42,39.9c-1.97,2.93-5.1,4.79-8.59,5.13
		c-3.47,0.36-6.89-0.91-9.36-3.4l0,0l-55.33-55.84h78.27C5279.41,930.5,5282.67,932.05,5284.88,934.75z M5080.08,934.78
		c2.23-2.72,5.51-4.28,9-4.28l78.25,0L5112,986.34l0,0c-0.01,0.01-0.01,0.02-0.02,0.03c-2.49,2.51-5.78,3.68-9.29,3.36
		c-3.54-0.34-6.73-2.26-8.74-5.27c-8.11-12.1-13.61-25.54-16.34-39.93C5076.94,941.06,5077.84,937.51,5080.08,934.78z
		 M5120.88,995.31l55.34-55.85v78.97c0,0.01,0,0.01,0,0.02h0c0,3.51-1.54,6.8-4.21,9.03c-2.75,2.29-6.34,3.21-9.87,2.52
		c-14.22-2.77-27.52-8.35-39.53-16.58c-2.9-1.99-4.75-5.14-5.08-8.66C5117.19,1001.25,5118.41,997.81,5120.88,995.31z
		 M5188.78,939.47l55.34,55.85c2.49,2.52,3.68,5.85,3.35,9.39c-0.34,3.57-2.24,6.79-5.22,8.82c-12,8.19-25.31,13.74-39.57,16.49
		c-3.44,0.66-6.96-0.24-9.67-2.5c-2.69-2.25-4.24-5.56-4.24-9.09V939.47z M5182.5,1055.5c-69.66,0-126.71-55.51-130-125h15.36
		c-2.72,4.96-3.68,10.74-2.61,16.41c3.05,16.1,9.2,31.12,18.27,44.65c4.12,6.15,10.67,10.08,17.95,10.79
		c0.78,0.07,1.55,0.11,2.32,0.11c0.38,0,0.77-0.04,1.15-0.06c-0.06,1.18-0.06,2.36,0.05,3.55c0.69,7.3,4.53,13.84,10.53,17.96
		c13.43,9.2,28.31,15.44,44.21,18.54c1.57,0.3,3.14,0.45,4.7,0.45c5.64,0,11.13-1.96,15.55-5.64c0.9-0.75,1.72-1.58,2.49-2.44
		c0.78,0.87,1.61,1.71,2.52,2.48c4.4,3.67,9.85,5.62,15.44,5.62c1.52,0,3.06-0.15,4.59-0.44c15.95-3.08,30.83-9.28,44.25-18.44
		c6.09-4.16,9.99-10.76,10.69-18.12c0.11-1.18,0.11-2.34,0.05-3.5c0.4,0.02,0.8,0.06,1.2,0.06c0.77,0,1.54-0.04,2.31-0.11
		c7.23-0.69,13.72-4.56,17.8-10.63c9.12-13.56,15.3-28.57,18.36-44.61c1.1-5.76,0.13-11.6-2.6-16.62h15.39
		C5309.21,999.99,5252.16,1055.5,5182.5,1055.5z"/>
	<path d="M3576.45,1144.99c2.27,2.76,3.19,6.36,2.5,9.91c-2.75,14.26-8.3,27.62-16.48,39.68c-1.98,2.91-5.12,4.77-8.62,5.1
		c-3.49,0.36-6.92-0.9-9.4-3.38l0,0l-55.54-55.54h78.56C3570.96,1140.76,3574.24,1142.3,3576.45,1144.99z M3370.88,1145.02
		c2.24-2.71,5.53-4.26,9.04-4.26h78.55l-55.54,55.54l0,0c-0.01,0.01-0.01,0.02-0.02,0.03c-2.5,2.49-5.8,3.66-9.33,3.35
		c-3.56-0.34-6.75-2.25-8.77-5.24c-8.14-12.04-13.66-25.4-16.4-39.72C3367.74,1151.26,3368.64,1147.73,3370.88,1145.02z
		 M3411.84,1205.22l55.55-55.55v78.54c0,0.01,0,0.01,0,0.02h0c0,3.49-1.54,6.76-4.23,8.98c-2.76,2.27-6.36,3.19-9.91,2.5
		c-14.27-2.75-27.62-8.3-39.68-16.49c-2.91-1.97-4.77-5.11-5.1-8.62C3408.13,1211.13,3409.36,1207.7,3411.84,1205.22z M3480,1149.68
		l55.55,55.55c2.5,2.5,3.7,5.82,3.36,9.34c-0.34,3.55-2.25,6.75-5.24,8.77c-12.04,8.14-25.4,13.66-39.72,16.4
		c-3.46,0.65-6.99-0.24-9.7-2.48c-2.7-2.24-4.25-5.53-4.25-9.04V1149.68z M3473.69,1265.09c-69.92,0-127.18-55.21-130.49-124.33
		h15.42c-2.73,4.94-3.7,10.68-2.62,16.33c3.07,16.01,9.24,30.95,18.34,44.41c4.14,6.12,10.71,10.03,18.02,10.73
		c0.78,0.07,1.56,0.11,2.33,0.11c0.39,0,0.77-0.04,1.15-0.06c-0.06,1.17-0.06,2.35,0.05,3.53c0.69,7.26,4.54,13.77,10.57,17.86
		c13.48,9.15,28.41,15.35,44.38,18.44c1.57,0.3,3.15,0.45,4.72,0.45c5.66,0,11.17-1.95,15.61-5.61c0.91-0.75,1.72-1.57,2.5-2.43
		c0.79,0.87,1.61,1.7,2.53,2.46c4.42,3.65,9.88,5.59,15.5,5.59c1.53,0,3.07-0.14,4.61-0.44c16.01-3.06,30.95-9.23,44.41-18.34
		c6.12-4.14,10.02-10.7,10.73-18.02c0.11-1.17,0.11-2.33,0.05-3.48c0.4,0.02,0.8,0.06,1.21,0.06c0.77,0,1.54-0.04,2.32-0.11
		c7.26-0.69,13.77-4.54,17.87-10.58c9.15-13.49,15.35-28.42,18.43-44.37c1.11-5.73,0.14-11.54-2.61-16.53h15.45
		C3600.87,1209.87,3543.61,1265.09,3473.69,1265.09z"/>
	<path d="M3567.54,1128.13h-78.56l55.54-55.54l0,0c2.48-2.48,5.91-3.74,9.4-3.38c3.5,0.33,6.64,2.19,8.62,5.1
		c8.19,12.06,13.73,25.42,16.48,39.68c0.68,3.54-0.23,7.15-2.5,9.91C3574.3,1126.59,3571.03,1128.13,3567.54,1128.13z
		 M3368.46,1114.18c2.74-14.32,8.26-27.68,16.4-39.72c2.02-2.99,5.22-4.9,8.77-5.24c3.52-0.31,6.83,0.85,9.33,3.35
		c0.01,0.01,0.01,0.02,0.02,0.03l0,0l55.54,55.54h-78.55c-3.51,0-6.8-1.55-9.04-4.26
		C3368.71,1121.16,3367.8,1117.63,3368.46,1114.18z M3408.53,1054.28c0.33-3.5,2.19-6.64,5.1-8.62
		c12.06-8.19,25.41-13.74,39.68-16.49c3.54-0.69,7.15,0.23,9.91,2.5c2.69,2.22,4.23,5.49,4.23,8.98h0c0,0.01,0,0.01,0,0.02v78.54
		l-55.55-55.55C3409.43,1061.19,3408.2,1057.76,3408.53,1054.28z M3480.06,1040.67c0-3.51,1.55-6.8,4.25-9.04
		c2.71-2.24,6.24-3.14,9.7-2.48c14.31,2.74,27.68,8.26,39.72,16.4c2.99,2.02,4.9,5.22,5.24,8.77c0.34,3.52-0.86,6.84-3.36,9.34
		l-55.55,55.55V1040.67z M3604.24,1128.13h-15.45c2.75-4.99,3.72-10.8,2.61-16.53c-3.08-15.95-9.28-30.89-18.43-44.37
		c-4.1-6.04-10.61-9.89-17.87-10.58c-0.78-0.07-1.55-0.11-2.32-0.11c-0.4,0-0.8,0.04-1.21,0.06c0.05-1.15,0.06-2.31-0.05-3.48
		c-0.7-7.32-4.61-13.88-10.73-18.02c-13.47-9.11-28.41-15.28-44.41-18.34c-1.53-0.3-3.08-0.44-4.61-0.44
		c-5.61,0-11.08,1.94-15.5,5.59c-0.92,0.76-1.74,1.59-2.53,2.46c-0.78-0.86-1.6-1.68-2.5-2.43c-4.44-3.66-9.95-5.61-15.61-5.61
		c-1.57,0-3.15,0.15-4.72,0.45c-15.96,3.08-30.89,9.29-44.38,18.44c-6.03,4.09-9.89,10.6-10.57,17.86
		c-0.11,1.18-0.11,2.36-0.05,3.53c-0.38-0.02-0.77-0.06-1.15-0.06c-0.77,0-1.55,0.03-2.33,0.11c-7.31,0.7-13.88,4.61-18.02,10.73
		c-9.11,13.46-15.28,28.4-18.34,44.41c-1.08,5.65-0.11,11.39,2.62,16.33h-15.42c3.3-69.12,60.57-124.33,130.49-124.33
		S3600.94,1059.02,3604.24,1128.13z"/>
</g>
</svg>
